<?xml version="1.0" encoding="UTF-8"?> <svg xmlns="http://www.w3.org/2000/svg" width="980" height="140" viewBox="0 0 980 140" fill="none"> <path fill-rule="evenodd" clip-rule="evenodd" d="M202.816 30.6509L202.816 91.9519H232.739L232.74 30.6509H249.364V140H232.74L232.739 108.52L186.192 108.521V30.6509H202.816ZM342.46 30.6509V108.521L295.912 108.52L295.912 140H279.288V30.6509H342.46ZM63.1722 30.6509V62.1302H46.5479L46.547 47.2189H16.624V91.9519H46.547L46.5479 77.0414H63.1722V108.521H0V30.6509H63.1722ZM156.268 30.6509V62.1302H139.644L139.643 47.2189H109.72L109.72 108.521H93.0959V30.6509H156.268ZM514.521 30.6509V108.521H450.517V30.6509H514.521ZM405.632 14.0828L405.632 30.6508L421.425 30.6509V47.2189L405.632 47.2188V91.9518L420.594 91.9527V108.521H389.008L389.008 47.2188L373.215 47.2189V30.6509L389.008 30.6508L389.008 14.0828H405.632ZM701.544 77.0414V108.521H684.919V77.0414H701.544ZM654.165 0V62.1302H684.919V77.0414H654.165V108.521H637.54V0H654.165ZM841.188 0V108.521H824.563V0H841.188ZM887.735 0V108.521H871.111V0H887.735ZM748.092 30.6509L748.091 91.1239H778.014L778.015 30.6509H794.64V108.521H731.467V30.6509H748.092ZM606.785 30.6509V45.5621L561.068 45.5619V62.1299L606.785 62.1302V108.521H544.444V93.6095L590.16 93.6089V77.0409L544.444 77.0414V30.6509H606.785ZM980 30.6509V45.5621L934.283 45.5619V62.1299L980 62.1302V108.521H917.659V93.6095L963.375 93.6089V77.0409L917.659 77.0414V30.6509H980ZM325.835 47.2189H295.912V91.9519H325.835V47.2189ZM497.896 48.0469H467.141V91.1239H497.896V48.0469ZM701.544 30.6509V62.1302H684.919V30.6509H701.544Z" fill="url(#paint0_linear)"></path> <defs> <linearGradient id="paint0_linear" x1="-10.4291" y1="-34.6864" x2="964.785" y2="-34.6864" gradientUnits="userSpaceOnUse"> <stop stop-color="#6AB8F8"></stop> <stop offset="0.199585" stop-color="#6596F1"></stop> <stop offset="0.369187" stop-color="#9187EC"></stop> <stop offset="0.558511" stop-color="#C871CE"></stop> <stop offset="0.755723" stop-color="#DF5770"></stop> <stop offset="1" stop-color="#EC764F"></stop> </linearGradient> </defs> </svg> 